<?xml version="1.0" standalone="no"?>
<!DOCTYPE svg PUBLIC "-//W3C//DTD SVG 20010904//EN"
 "http://www.w3.org/TR/2001/REC-SVG-20010904/DTD/svg10.dtd">
<svg version="1.0" xmlns="http://www.w3.org/2000/svg"
 width="299.000000pt" height="299.000000pt" viewBox="0 0 299.000000 299.000000"
 preserveAspectRatio="xMidYMid meet">
<metadata>
Created by potrace 1.14, written by Peter Selinger 2001-2017
</metadata>
<g transform="translate(0.000000,299.000000) scale(0.100000,-0.100000)"
fill="#000000" stroke="none">
<path d="M412 2960 c-7 -11 -17 -20 -23 -20 -15 0 -59 -47 -51 -54 3 -3 0 -6
-6 -6 -7 0 -12 -10 -12 -22 0 -17 -3 -19 -9 -10 -6 10 -10 8 -13 -10 -3 -12
-9 -32 -13 -43 -5 -16 -5 -17 4 -5 9 13 11 13 11 -2 0 -9 -4 -19 -9 -22 -10
-6 -7 -57 3 -75 4 -6 2 -11 -3 -11 -6 0 -11 -5 -11 -11 0 -5 5 -7 10 -4 6 3
10 -1 10 -9 0 -8 -5 -18 -10 -21 -8 -5 -8 -11 0 -20 8 -9 8 -15 0 -20 -5 -3
-10 -11 -10 -16 0 -6 5 -7 10 -4 6 3 10 1 10 -4 0 -6 -5 -11 -11 -11 -8 0 -8
-4 -1 -13 7 -8 7 -18 2 -27 -5 -9 -5 -19 1 -26 7 -8 6 -14 -1 -19 -5 -3 -10
-11 -10 -16 0 -6 5 -7 10 -4 6 3 10 2 10 -4 0 -5 -6 -12 -12 -15 -10 -5 -10
-7 0 -12 6 -3 12 -10 12 -15 0 -6 -4 -7 -10 -4 -14 9 -12 -8 3 -24 10 -11 9
-12 -1 -7 -9 6 -11 1 -8 -18 3 -14 8 -31 12 -37 4 -8 3 -9 -4 -5 -15 9 -15 1
-1 -26 8 -15 8 -19 0 -14 -15 10 -14 -7 2 -23 9 -11 9 -13 0 -7 -7 4 -13 2
-13 -3 0 -6 6 -11 13 -11 7 0 8 -3 2 -8 -15 -11 -19 -56 -4 -47 8 6 10 4 3 -6
-13 -21 -15 -49 -4 -49 6 0 10 -5 10 -11 0 -5 -4 -8 -8 -5 -5 3 -9 -10 -9 -29
0 -19 5 -35 11 -35 7 0 7 -3 1 -8 -5 -4 -11 -27 -12 -52 -2 -32 1 -41 7 -30 6
9 10 10 10 3 0 -6 -4 -14 -8 -17 -11 -6 -9 -67 2 -85 6 -9 5 -12 -1 -8 -12 8
-12 -353 1 -372 6 -9 5 -12 -1 -8 -15 9 -14 -883 1 -902 9 -12 8 -13 -4 -6
-13 8 -13 6 -2 -7 14 -18 52 -20 52 -3 0 5 5 2 11 -7 6 -11 16 -15 26 -11 11
4 14 3 9 -6 -5 -8 -3 -11 5 -10 8 2 24 -2 36 -9 17 -9 23 -10 23 -1 0 8 4 8
15 -1 8 -7 22 -10 30 -6 9 3 13 2 10 -4 -6 -9 18 -14 68 -13 9 0 17 -4 17 -9
0 -5 4 -7 9 -3 5 3 12 1 15 -4 3 -5 24 -8 45 -7 22 1 38 -1 35 -6 -3 -5 -10
-5 -16 -2 -6 4 -8 2 -4 -4 3 -6 15 -9 26 -7 11 2 22 0 24 -4 3 -4 22 -8 42 -9
21 -1 40 -6 43 -11 3 -5 24 -11 46 -12 22 -2 46 -11 52 -19 11 -13 14 -13 22
0 9 12 11 12 17 -3 3 -9 10 -15 14 -12 5 3 11 1 14 -3 3 -5 18 -7 32 -4 16 3
24 1 21 -4 -5 -9 21 -14 75 -17 9 -1 14 -5 12 -9 -3 -4 -1 -8 5 -8 5 0 12 6
14 13 3 7 6 4 6 -6 1 -11 6 -15 12 -11 10 6 28 0 80 -26 10 -5 22 -4 29 3 10
9 11 9 6 0 -7 -13 11 -18 43 -14 8 2 10 -2 5 -11 -5 -9 -2 -8 11 2 11 9 16 10
11 2 -5 -8 2 -12 23 -12 18 0 31 -5 31 -12 0 -9 4 -8 10 2 8 12 10 12 10 1 0
-8 7 -11 20 -8 12 3 24 -1 30 -11 8 -14 9 -14 10 -2 1 13 2 13 10 0 5 -10 22
-15 44 -15 21 1 33 -2 29 -8 -4 -6 0 -8 10 -4 9 3 19 2 23 -4 3 -5 15 -7 26
-3 14 4 18 2 14 -5 -5 -7 2 -11 16 -11 13 0 29 -5 35 -11 7 -7 13 -7 17 -1 4
7 17 5 35 -4 26 -13 67 -23 109 -26 6 -1 12 -6 12 -11 0 -5 9 -7 20 -4 14 4
20 0 21 -11 0 -11 2 -12 6 -5 3 9 10 10 24 3 10 -6 19 -8 19 -5 0 3 14 -2 31
-11 23 -11 29 -12 23 -2 -6 10 -5 11 7 1 8 -6 29 -14 48 -16 19 -3 37 -11 41
-17 6 -9 9 -9 13 1 4 11 6 11 6 1 1 -7 6 -10 11 -7 6 4 17 1 25 -5 8 -7 15 -9
15 -5 0 4 8 1 17 -6 14 -12 15 -12 9 -1 -7 12 -4 12 15 1 26 -14 52 -21 87
-22 12 -1 22 -5 22 -10 0 -4 5 -5 10 -2 6 4 7 11 4 17 -4 7 -2 8 4 4 6 -3 20
4 31 16 23 24 26 34 11 43 -6 4 -7 12 -3 18 8 12 9 17 12 37 0 5 9 6 18 3 13
-5 15 -2 10 11 -4 9 -3 15 2 11 5 -3 16 1 24 9 8 8 17 12 21 9 3 -4 6 -1 6 6
0 7 5 9 10 6 6 -3 10 1 10 9 0 9 7 16 15 16 8 0 24 10 36 23 12 12 19 16 14 9
-6 -11 -3 -11 13 -1 12 7 18 17 16 21 -3 4 9 8 26 8 17 0 29 -4 26 -8 -3 -5 1
-9 9 -9 8 0 12 4 10 8 -3 4 7 10 20 13 14 4 23 11 20 16 -3 6 -2 10 2 10 5 0
7 17 5 38 -2 28 -1 33 7 22 7 -9 11 -10 11 -3 0 6 -4 15 -10 18 -5 3 -10 11
-10 16 0 6 4 8 8 5 4 -2 8 4 9 14 1 11 -2 22 -8 25 -5 4 -9 11 -9 16 0 6 5 7
10 4 6 -3 10 -1 10 4 0 6 -5 11 -11 11 -8 0 -7 6 2 17 10 11 10 14 1 9 -15 -9
-16 6 0 22 7 7 8 12 2 12 -6 0 -11 7 -11 15 0 8 4 12 9 9 4 -3 8 0 8 5 0 6 -6
11 -12 11 -10 0 -9 3 1 9 11 7 11 9 0 13 -8 3 -9 9 -4 18 12 20 14 99 3 106
-5 3 -4 11 2 19 8 9 8 15 0 20 -6 3 -7 12 -3 18 10 17 12 97 1 103 -4 3 -5 11
-1 17 10 17 11 137 1 143 -5 3 -4 12 2 19 8 9 8 15 0 20 -6 3 -7 12 -3 18 10
17 12 97 2 103 -5 3 -4 14 2 26 6 11 7 18 2 15 -5 -4 -10 0 -10 8 0 8 4 12 9
9 4 -3 8 0 8 5 0 6 -5 11 -11 11 -6 0 -7 5 -2 13 11 18 12 66 1 73 -5 3 -5 11
2 19 8 9 8 15 0 20 -6 3 -7 12 -3 18 9 15 12 88 4 102 -8 16 -8 45 1 39 4 -3
8 0 8 5 0 6 -5 11 -11 11 -8 0 -8 5 1 15 9 11 10 19 1 28 -8 10 -7 17 1 25 9
9 9 12 -1 12 -11 0 -11 3 0 17 11 13 11 17 2 20 -7 3 -13 9 -13 14 0 6 6 7 13
3 10 -6 10 -4 0 7 -15 16 -17 33 -3 24 6 -3 10 -1 10 4 0 6 -5 11 -11 11 -8 0
-7 6 2 17 10 11 10 14 2 9 -16 -9 -17 6 -1 22 9 9 9 12 -1 12 -11 0 -11 3 0
17 11 13 11 17 2 20 -7 3 -13 9 -13 14 0 6 6 7 13 3 10 -6 10 -4 0 7 -15 16
-17 33 -3 24 6 -3 10 -1 10 4 0 6 -4 11 -10 11 -5 0 -10 5 -10 11 0 5 6 7 13
3 10 -6 10 -4 0 7 -15 16 -17 33 -3 24 6 -3 10 -1 10 4 0 6 -5 11 -11 11 -8 0
-7 6 2 17 10 11 10 14 2 9 -16 -9 -17 6 -2 21 8 8 8 13 0 17 -6 4 -11 19 -11
34 0 21 2 24 10 12 6 -9 10 -10 10 -3 0 6 -4 15 -10 18 -5 3 -10 11 -10 16 0
6 4 8 8 5 4 -2 9 5 9 17 2 17 0 19 -7 7 -8 -13 -10 -13 -10 2 0 9 6 19 13 21
10 4 10 6 0 6 -7 1 -13 7 -13 15 0 8 6 17 13 19 10 4 10 6 0 6 -7 1 -13 11
-13 24 0 17 2 19 10 7 7 -12 9 -10 7 7 0 12 -5 19 -9 17 -4 -3 -8 -1 -8 5 0 5
5 13 10 16 8 5 8 11 0 20 -8 10 -7 14 2 18 10 4 10 6 1 6 -7 1 -13 8 -13 16 0
8 6 15 13 15 9 0 9 2 -1 9 -16 9 -15 20 1 40 9 12 9 13 0 7 -7 -4 -13 -3 -13
1 0 5 6 15 13 22 10 11 10 13 0 7 -9 -5 -13 0 -13 14 0 12 5 18 10 15 6 -3 10
-1 10 4 0 6 -3 11 -7 11 -5 0 -9 18 -10 40 -2 30 1 39 10 34 9 -5 9 -4 0 7 -7
7 -13 21 -13 32 0 12 4 16 13 11 8 -6 8 -3 -2 9 -7 9 -11 24 -7 32 3 8 1 15
-4 15 -5 0 -6 7 -3 17 4 11 3 14 -5 9 -7 -4 -12 -1 -12 8 0 9 -3 16 -7 17 -5
0 -15 2 -23 4 -50 12 -60 13 -55 4 4 -5 1 -9 -4 -9 -6 0 -11 5 -11 11 0 6 -7
9 -15 6 -8 -4 -17 -1 -21 5 -4 7 -9 6 -14 -2 -5 -8 -12 -7 -24 5 -10 10 -16
12 -16 4 0 -8 -5 -8 -17 2 -9 8 -14 9 -10 3 3 -6 0 -11 -8 -11 -8 0 -12 4 -9
9 3 4 1 8 -5 8 -5 0 -13 -5 -16 -10 -5 -8 -11 -7 -20 0 -8 7 -18 9 -23 7 -4
-3 -14 -2 -22 3 -8 5 -21 5 -31 0 -12 -7 -21 -5 -29 5 -10 12 -16 13 -28 3
-11 -9 -14 -10 -9 -1 6 9 -2 11 -28 9 -19 -2 -38 1 -41 6 -4 6 -10 5 -15 -3
-6 -9 -9 -10 -9 -2 0 6 -11 10 -25 8 -14 -1 -25 3 -26 9 0 6 -4 2 -9 -9 -8
-18 -9 -18 -9 -2 -1 15 -4 16 -22 6 -13 -7 -19 -7 -15 -1 3 6 2 13 -4 17 -5 3
-10 1 -10 -5 0 -6 -4 -9 -8 -6 -5 3 -26 6 -46 8 -21 1 -39 5 -42 9 -2 4 -13 5
-24 2 -11 -3 -26 0 -34 6 -9 8 -16 8 -20 2 -5 -7 -15 -7 -31 -1 -18 7 -25 6
-25 -3 0 -9 -2 -9 -8 0 -4 7 -18 11 -30 8 -12 -2 -22 0 -22 6 0 5 -5 9 -11 9
-5 0 -7 -5 -3 -11 4 -8 1 -8 -12 -1 -11 5 -31 8 -46 6 -16 -1 -28 1 -28 6 0 9
-26 7 -36 -3 -4 -4 -12 -7 -18 -7 -6 0 -4 5 4 11 12 8 7 9 -17 6 -18 -2 -33
-1 -33 3 0 3 -13 5 -30 4 -16 -1 -30 2 -30 7 0 6 -9 5 -20 -1 -17 -9 -20 -8
-20 7 0 14 -2 15 -9 5 -12 -19 -15 -19 -36 -2 -17 14 -18 13 -12 -5 6 -17 4
-17 -13 4 -11 13 -20 18 -20 12 0 -6 -11 -10 -25 -9 -14 1 -25 6 -25 10 0 11
-43 5 -52 -7 -4 -5 -8 -1 -8 10 0 17 -2 17 -10 5 -9 -13 -10 -13 -10 0 0 13
-1 13 -10 0 -6 -9 -10 -11 -10 -3 0 7 -7 10 -15 7 -8 -4 -22 -1 -29 5 -11 9
-16 9 -21 0 -6 -8 -10 -8 -15 2 -7 10 -12 10 -26 -2 -10 -8 -15 -9 -11 -2 5 7
1 12 -10 12 -28 0 -114 9 -157 16 -30 5 -37 4 -31 -7 6 -10 5 -11 -6 0 -7 6
-28 12 -46 12 -18 0 -33 5 -33 11 0 7 -10 9 -25 7 -14 -3 -25 -2 -25 2 0 4
-11 5 -24 3 -13 -3 -27 0 -30 6 -5 8 -13 8 -27 0 -13 -6 -25 -7 -32 -1 -19 14
-207 14 -207 -1 0 -9 -2 -9 -8 0 -6 9 -11 7 -20 -7z"/>
</g>
</svg>
